M48
;GenerationSoftware,Autodesk,EAGLE,9.6.1*%
;CreationDate,2020-05-20T05:06:31Z*%
FMAT,2
ICI,OFF
METRIC,TZ,000.000
T2C0.914
T1C1.016
%
G90
M71
T1
X63500Y53340
X63500Y50800
X63500Y48260
X63500Y45720
X63500Y43180
X63500Y40640
X63500Y35560
X63500Y33020
X63500Y30480
X63500Y27940
X63500Y25400
X63500Y22860
X111760Y22860
X111760Y25400
X111760Y27940
X111760Y30480
X111760Y33020
X111760Y35560
X111760Y38100
X111760Y40640
X111760Y44450
X111760Y46990
X111760Y49530
X111760Y52070
X111760Y54610
X111760Y57150
X111760Y59690
X111760Y62230
X111760Y64770
X111760Y67310
X63500Y55880
X63500Y58420
T2
X93980Y72390
X93980Y67310
X93980Y62230
X76200Y72390
X76200Y67310
X76200Y62230
X76200Y38100
X76200Y33020
X76200Y27940
X93980Y57150
X76200Y57150
X97790Y30480
X97790Y25400
X76200Y52070
X93980Y52070
X97790Y36830
X97790Y43180
M30