G04 EAGLE Gerber RS-274X export*
G75*
%MOMM*%
%FSLAX34Y34*%
%LPD*%
%INBottom Copper*%
%IPPOS*%
%AMOC8*
5,1,8,0,0,1.08239X$1,22.5*%
G01*
%ADD10C,1.879600*%
%ADD11P,1.732040X8X22.500000*%


D10*
X635000Y533400D03*
X635000Y508000D03*
X635000Y482600D03*
X635000Y457200D03*
X635000Y431800D03*
X635000Y406400D03*
X635000Y355600D03*
X635000Y330200D03*
X635000Y304800D03*
X635000Y279400D03*
X635000Y254000D03*
X635000Y228600D03*
X1117600Y228600D03*
X1117600Y254000D03*
X1117600Y279400D03*
X1117600Y304800D03*
X1117600Y330200D03*
X1117600Y355600D03*
X1117600Y381000D03*
X1117600Y406400D03*
X1117600Y444500D03*
X1117600Y469900D03*
X1117600Y495300D03*
X1117600Y520700D03*
X1117600Y546100D03*
X1117600Y571500D03*
X1117600Y596900D03*
X1117600Y622300D03*
X1117600Y647700D03*
X1117600Y673100D03*
X635000Y558800D03*
X635000Y584200D03*
D11*
X939800Y723900D03*
X939800Y673100D03*
X939800Y622300D03*
X762000Y723900D03*
X762000Y673100D03*
X762000Y622300D03*
X762000Y381000D03*
X762000Y330200D03*
X762000Y279400D03*
X939800Y571500D03*
X762000Y571500D03*
X977900Y304800D03*
X977900Y254000D03*
X762000Y520700D03*
X939800Y520700D03*
X977900Y368300D03*
X977900Y431800D03*
M02*
